<svg width="165" height="148" viewBox="0 0 165 148" fill="none" xmlns="http://www.w3.org/2000/svg">
<path fill-rule="evenodd" clip-rule="evenodd" d="M54 57.4483L76.7143 39L90.0442 51.1456C99.077 59.3759 114.923 59.3758 123.956 51.1456L137.286 39L160 57.4483L146.107 67.0773C134.772 74.9333 134.772 89.1589 146.107 97.0149L160 106.644L137.286 125.092L124.278 112.712C115.21 104.082 98.7898 104.082 89.7217 112.712L76.7143 125.092L54 106.644L68.5678 96.5471C79.5484 88.9366 79.5484 75.1556 68.5678 67.5451L54 57.4483Z" fill="white"/>
<path fill-rule="evenodd" clip-rule="evenodd" d="M54 67.2874L76.7143 48.8391L90.0442 60.9847C99.077 69.215 114.923 69.215 123.956 60.9847L137.286 48.8391L160 67.2874L146.107 76.9164C134.772 84.7724 134.772 98.998 146.107 106.854L160 116.483L137.286 134.931L124.278 122.551C115.21 113.921 98.7898 113.921 89.7217 122.551L76.7143 134.931L54 116.483L68.5678 106.386C79.5484 98.7757 79.5484 84.9947 68.5678 77.3842L54 67.2874Z" fill="white"/>
<path fill-rule="evenodd" clip-rule="evenodd" d="M54 78.3562L76.7143 59.9079L90.0442 72.0534C99.077 80.2837 114.923 80.2837 123.956 72.0534L137.286 59.9079L160 78.3562L146.107 87.9851C134.772 95.8411 134.772 110.067 146.107 117.923L160 127.552L137.286 146L124.278 133.62C115.21 124.989 98.7898 124.989 89.7217 133.62L76.7143 146L54 127.552L68.5678 117.455C79.5484 109.844 79.5484 96.0634 68.5678 88.4529L54 78.3562Z" fill="white"/>
</svg>
